<svg width="20" height="20" viewBox="0 0 20 20" fill="none" xmlns="http://www.w3.org/2000/svg">
<g clip-path="url(#clip0_671_44)">
<path d="M1.07422 0.0547996C0.640625 0.191518 0.332031 0.46105 0.140625 0.859487L0.0195312 1.11339V3.33996V5.56652L0.148438 5.82824C0.304688 6.14855 0.613281 6.44152 0.929688 6.57042L1.15234 6.66027L4.43359 6.67199C6.78906 6.6798 7.78125 6.67199 7.94922 6.64074C8.57422 6.51964 9.01953 6.07433 9.14063 5.44933C9.17188 5.28527 9.17969 4.60558 9.17188 3.18371C9.16016 1.16417 9.16016 1.15246 9.07031 0.9298C8.94141 0.613393 8.64844 0.3048 8.32813 0.14855L8.06641 0.0196433L4.64844 0.0118308C1.96094 0.00401831 1.19531 0.0157371 1.07422 0.0547996ZM7.86719 1.33605C7.92188 1.41417 7.92969 1.66808 7.92969 3.34777C7.92969 5.22277 7.92578 5.27746 7.85156 5.35167C7.77344 5.4298 7.72266 5.4298 4.59766 5.4298C1.78906 5.4298 1.41406 5.42199 1.33594 5.3673L1.25 5.30871V3.35167C1.25 1.58214 1.25781 1.38683 1.31641 1.32042C1.375 1.25402 1.52734 1.25011 4.59375 1.25011H7.80859L7.86719 1.33605Z" fill="currentColor"/>
<path d="M11.91 0.0547991C11.496 0.164174 11.0936 0.527455 10.9296 0.929799L10.8397 1.15246L10.828 5.68371C10.8202 8.95714 10.828 10.2814 10.8593 10.4493C10.9804 11.0743 11.4257 11.5196 12.0507 11.6407C12.2186 11.672 13.2108 11.6798 15.5663 11.672L18.8475 11.6603L19.0702 11.5704C19.3866 11.4415 19.6952 11.1485 19.8515 10.8282L19.9804 10.5665V5.83996V1.11339L19.8593 0.859487C19.703 0.531362 19.4686 0.296987 19.1483 0.144643L18.8866 0.0196428L15.4882 0.0118303C12.8827 0.00792408 12.0468 0.0157366 11.91 0.0547991ZM18.6796 1.31652C18.746 1.37511 18.7499 1.56652 18.7499 5.84386V10.3087L18.664 10.3673C18.5858 10.422 18.2108 10.4298 15.4022 10.4298C12.2772 10.4298 12.2265 10.4298 12.1483 10.3517C12.0702 10.2735 12.0702 10.2228 12.0702 5.84777C12.0702 1.90636 12.078 1.41417 12.1327 1.33605L12.1913 1.25011H15.3983C18.328 1.25011 18.6132 1.25402 18.6796 1.31652Z" fill="currentColor"/>
<path d="M1.17188 8.36328C0.734375 8.44922 0.324219 8.78125 0.125 9.21094L0.0195312 9.43359V14.1602V18.8867L0.140625 19.1406C0.292969 19.4648 0.535156 19.707 0.859375 19.8594L1.11328 19.9805H4.58984H8.06641L8.32813 19.8516C8.64844 19.6953 8.94141 19.3867 9.07031 19.0703L9.16016 18.8477L9.17188 14.3164C9.17969 11.043 9.17188 9.71875 9.14063 9.55078C9.02344 8.9375 8.58594 8.49219 7.97656 8.36328C7.72656 8.3125 1.44531 8.30859 1.17188 8.36328ZM7.85156 9.64844C7.92969 9.72656 7.92969 9.77734 7.92969 14.1523C7.92969 18.0938 7.92188 18.5859 7.86719 18.6641L7.80859 18.75H4.60156C1.67188 18.75 1.38672 18.7461 1.32031 18.6836C1.25391 18.625 1.25 18.4336 1.25 14.1563V9.69141L1.33594 9.63281C1.41406 9.57813 1.78906 9.57031 4.59766 9.57031C7.72266 9.57031 7.77344 9.57031 7.85156 9.64844Z" fill="currentColor"/>
<path d="M11.9725 13.375C11.3866 13.5195 10.9765 13.9531 10.8593 14.5508C10.828 14.7148 10.8202 15.3906 10.828 16.8164C10.8397 18.8359 10.8397 18.8477 10.9296 19.0703C11.0585 19.3867 11.3515 19.6953 11.6718 19.8516L11.9335 19.9805H15.41H18.8866L19.1483 19.8555C19.4686 19.7031 19.703 19.4688 19.8593 19.1406L19.9804 18.8867V16.6602V14.4336L19.8515 14.1719C19.6952 13.8516 19.3866 13.5586 19.0702 13.4297L18.8475 13.3398L15.5077 13.332C12.9725 13.3281 12.121 13.3359 11.9725 13.375ZM18.664 14.6328L18.7499 14.6914V16.6484C18.7499 18.418 18.7421 18.6133 18.6835 18.6797C18.6249 18.7461 18.4725 18.75 15.4061 18.75H12.1913L12.1327 18.6641C12.078 18.5859 12.0702 18.332 12.0702 16.6523C12.0702 14.7773 12.0741 14.7227 12.1483 14.6484C12.2265 14.5703 12.2772 14.5703 15.4022 14.5703C18.2108 14.5703 18.5858 14.5781 18.664 14.6328Z" fill="currentColor"/>
</g>
<defs>
<clipPath id="clip0_671_44">
<rect width="20" height="20" fill="currentColor"/>
</clipPath>
</defs>
</svg>
