<svg width="20" height="20" viewBox="0 0 20 20" fill="none" xmlns="http://www.w3.org/2000/svg">
<g clip-path="url(#clip0_670_36)">
<path d="M3.17571 0.0390625C3.12883 0.0585938 3.07414 0.109375 3.05071 0.152344C3.01946 0.207031 3.00774 3.09766 3.00774 9.78125V19.3359H1.94133C0.9218 19.3359 0.871018 19.3398 0.788987 19.4141C0.617112 19.5742 0.648362 19.8672 0.843675 19.957C0.9843 20.0195 19.0156 20.0195 19.1562 19.957C19.3515 19.8672 19.3827 19.5742 19.2109 19.4141C19.1288 19.3398 19.0781 19.3359 18.0585 19.3359H16.9921V9.76953C16.9921 0.410156 16.9921 0.203125 16.9179 0.113281L16.8437 0.0195312L10.0507 0.0117188C6.18742 0.0078125 3.22649 0.0195312 3.17571 0.0390625ZM16.328 10V19.3359H15.996H15.664V10.4375C15.6601 3.50781 15.6523 1.52734 15.6132 1.48047C15.5859 1.44531 15.5273 1.39844 15.4804 1.375C15.3632 1.30859 4.65617 1.30859 4.51946 1.37109C4.46477 1.39453 4.40227 1.45703 4.37883 1.51172C4.34758 1.57812 4.33586 4.05469 4.33586 10.4688V19.3359H4.00383H3.6718V10V0.664062H9.99992H16.328V10ZM14.9999 10.6641V19.3359H9.99992H4.99992V10.6641V1.99219H9.99992H14.9999V10.6641Z" fill="currentColor"/>
<path d="M12.5938 9.67188C12.4336 9.70703 12.3477 9.84766 12.3359 10.0977L12.3242 10.332L11.9062 10.3516C11.418 10.375 11.3477 10.4141 11.3477 10.6641C11.3477 10.7734 11.375 10.8477 11.4375 10.9062C11.5117 10.9844 11.5742 10.9961 11.9336 11.0078L12.3438 11.0234V11.2461C12.3438 11.5078 12.4219 11.6211 12.6328 11.6602C12.7031 11.6758 13.0742 11.6797 13.4531 11.6719L14.1484 11.6602L14.2422 11.5469L14.3398 11.4375L14.3281 10.6406C14.3125 9.58984 14.3867 9.67188 13.4062 9.66016C13.0039 9.66016 12.6367 9.66406 12.5938 9.67188ZM13.6719 10.6836V11.0156H13.3398H13.0078V10.6836V10.3516H13.3398H13.6719V10.6836Z" fill="currentColor"/>
</g>
<defs>
<clipPath id="clip0_670_36">
<rect width="20" height="20" fill="currentColor"/>
</clipPath>
</defs>
</svg>
