<svg width="20" height="20" viewBox="0 0 20 20" fill="none" xmlns="http://www.w3.org/2000/svg">
<g clip-path="url(#clip0_670_40)">
<path d="M9.82031 0.0506325C9.6875 0.124851 5.53516 3.87094 5.48047 3.96079C5.39063 4.11313 5.41797 4.33188 5.54297 4.45688L5.65625 4.57016H6.36328H7.07031V6.87485V9.17954L4.73828 9.18735C2.13281 9.19907 2.27344 9.18735 1.98047 9.48032C1.71094 9.74594 1.69922 9.80063 1.6875 10.8006C1.67578 11.6913 1.67578 11.6991 1.77344 11.8905L1.87109 12.0858L1.78516 12.2225C1.70313 12.3553 1.69922 12.4139 1.6875 13.2811C1.67578 14.1913 1.67578 14.1991 1.77344 14.3866L1.86719 14.578L1.77344 14.7772C1.68359 14.9725 1.67969 15.0155 1.67969 15.8436C1.67969 16.6834 1.68359 16.7108 1.77734 16.8944L1.87109 17.0858L1.78516 17.2225C1.70313 17.3553 1.69922 17.4139 1.6875 18.2694C1.67578 19.1288 1.67969 19.1834 1.76172 19.3709C1.8125 19.492 1.91797 19.6366 2.01953 19.7264C2.34766 20.0155 2.12109 19.9999 6.25 19.9999C10.3594 19.9999 10.1445 20.0116 10.4688 19.7381C10.6484 19.5858 10.8203 19.2694 10.8203 19.0897C10.8203 19.0311 10.832 18.9842 10.8438 18.9842C10.8555 18.9842 10.9766 19.0624 11.1094 19.16C11.2422 19.2538 11.5117 19.41 11.7031 19.5077C14.4492 20.8749 17.6953 19.2459 18.2656 16.2186C18.3633 15.703 18.3242 14.7577 18.1836 14.2577C17.7656 12.7459 16.6758 11.5741 15.2344 11.0858C14.6016 10.8749 13.793 10.7889 13.1563 10.8749L12.9297 10.9022V7.73423V4.56235L13.4102 4.58969C14.2734 4.63657 14.5703 4.5311 14.5703 4.17173C14.5703 4.02329 14.5469 3.99204 14.1875 3.63657C13.875 3.32798 12.2852 1.89048 10.5898 0.38657C10.1328 -0.0157738 10.0234 -0.066555 9.82031 0.0506325ZM11.5508 2.37094L13.0586 3.73032L12.7109 3.74985C12.5195 3.76157 12.3203 3.79282 12.2734 3.82016C12.0664 3.93735 12.0703 3.86313 12.0703 7.64829V11.1639L11.9453 11.2108C11.6523 11.328 11.2461 11.5858 10.75 11.9686L10.6523 12.0467L10.7266 11.9334C10.793 11.828 10.8008 11.7381 10.8008 10.8592C10.8008 9.79282 10.793 9.74985 10.5195 9.48032C10.2461 9.20688 10.2188 9.19907 9.01563 9.18735L7.92969 9.17563V6.6561C7.92969 3.94516 7.92969 3.93735 7.72656 3.82016C7.67969 3.79282 7.48047 3.76157 7.28906 3.74985L6.94531 3.73032L8.44141 2.37485C9.26563 1.63266 9.96484 1.01938 9.99219 1.01938C10.0195 1.01548 10.7227 1.62485 11.5508 2.37094ZM9.92188 10.0389C9.96875 10.0702 9.98438 10.2069 9.99219 10.8124C10.0039 11.4686 9.99609 11.5545 9.9375 11.6053C9.88281 11.6522 9.3125 11.66 6.26563 11.6717C2.66797 11.6834 2.66016 11.6834 2.57813 11.6014C2.50391 11.5272 2.5 11.4842 2.50781 10.7889L2.51953 10.0584L2.63672 10.035C2.82813 9.99204 9.85547 9.99594 9.92188 10.0389ZM14.6992 11.7928C16.0195 12.1444 17.0195 13.16 17.3906 14.5155C17.5117 14.9647 17.5117 15.8202 17.3906 16.3045C17.043 17.6874 15.9883 18.7264 14.582 19.0702C14.082 19.1913 13.3594 19.1834 12.8477 19.0506C11.4844 18.6952 10.4492 17.6561 10.1094 16.3045C9.98828 15.8241 9.98828 14.9647 10.1094 14.5233C10.5039 13.078 11.5625 12.0624 13.0078 11.7381C13.3789 11.6561 14.2969 11.6834 14.6992 11.7928ZM9.85547 12.5428C10.0547 12.5975 10.0469 12.703 9.82031 13.0741C9.66016 13.3397 9.48828 13.7264 9.38672 14.0428L9.34766 14.16H5.98828C3.14063 14.16 2.61719 14.1522 2.5625 14.1053C2.50391 14.0545 2.49609 13.9686 2.50781 13.3124C2.51563 12.7069 2.53125 12.5702 2.57813 12.5389C2.66016 12.4842 9.66406 12.4881 9.85547 12.5428ZM9.17969 15.4374C9.18359 15.828 9.23047 16.2459 9.31641 16.5741L9.34375 16.6834L5.98828 16.6717C3.15625 16.66 2.61719 16.6522 2.5625 16.6053C2.50391 16.5545 2.49609 16.4686 2.50781 15.8124C2.51563 15.2069 2.53125 15.0702 2.57813 15.0389C2.61328 15.0155 3.91797 14.9999 5.91016 14.9999H9.17969V15.4374ZM9.83594 17.7772L10 18.0584V18.5389C10 18.9725 9.99219 19.0311 9.92188 19.1014C9.83984 19.1834 9.82031 19.1834 6.25781 19.1717C3.38281 19.1639 2.65625 19.1483 2.58594 19.1092C2.49609 19.0584 2.49609 19.0545 2.50781 18.3163C2.51563 17.7108 2.53125 17.5702 2.57813 17.5389C2.61328 17.5155 4.00781 17.4999 6.15234 17.4999H9.66797L9.83594 17.7772Z" fill="currentColor"/>
<path d="M13.5311 12.5742C13.3866 12.6641 13.3202 12.8281 13.3202 13.1094V13.3125L13.1248 13.3555C12.6834 13.4492 12.3827 13.6836 12.1991 14.082C11.9803 14.5586 12.0897 15.1055 12.4803 15.4844C12.7577 15.7578 12.9764 15.8203 13.6366 15.8203C14.2264 15.8203 14.3944 15.8594 14.5077 16.0195C14.5428 16.0703 14.5702 16.1719 14.5702 16.25C14.5702 16.3281 14.5428 16.4297 14.5077 16.4805C14.3827 16.6602 14.2498 16.6797 13.2694 16.6797C12.41 16.6797 12.3475 16.6836 12.2538 16.7578C12.1053 16.875 12.0506 17.0703 12.1248 17.2383C12.2147 17.4531 12.3436 17.5 12.8709 17.5H13.3202V17.7148C13.3202 18.1055 13.4725 18.3203 13.7498 18.3203C14.0233 18.3203 14.1795 18.1055 14.1795 17.7227V17.5117L14.3397 17.4844C14.6288 17.4375 14.8748 17.3047 15.0741 17.0859C15.5194 16.5977 15.5194 15.9023 15.0741 15.4141C14.7733 15.082 14.6053 15.0273 13.828 15C13.1444 14.9805 13.0545 14.957 12.9725 14.7773C12.8944 14.6016 12.9217 14.418 13.0428 14.293L13.1561 14.1797H14.1014C15.16 14.1797 15.2577 14.1602 15.367 13.9258C15.4022 13.8555 15.4295 13.7773 15.4295 13.75C15.4295 13.7227 15.4022 13.6445 15.367 13.5742C15.2733 13.3711 15.117 13.3203 14.6131 13.3203H14.1795V13.1055C14.1795 12.8281 14.1014 12.6367 13.9491 12.5625C13.7928 12.4805 13.6795 12.4844 13.5311 12.5742Z" fill="currentColor"/>
</g>
<defs>
<clipPath id="clip0_670_40">
<rect width="20" height="20" fill="currentColor"/>
</clipPath>
</defs>
</svg>
