<svg width="20" height="20" viewBox="0 0 20 20" fill="none" xmlns="http://www.w3.org/2000/svg">
<path d="M9.12081 0.0588217C8.0544 0.222884 7.10128 0.730697 6.35518 1.52367C5.53487 2.39476 5.10909 3.40257 5.0505 4.6096C4.96846 6.2971 5.79659 7.91038 7.22628 8.84398C7.9294 9.30492 8.60518 9.53929 9.4255 9.6057C10.945 9.72288 12.2419 9.24632 13.2888 8.17992C14.3122 7.13695 14.7692 5.85179 14.6442 4.37523C14.5349 3.1096 13.9763 2.01976 13.0075 1.18382C12.2419 0.527572 11.5388 0.199447 10.5661 0.0588217C10.0974 -0.00758457 9.5505 -0.0114908 9.12081 0.0588217ZM10.7849 1.28538C11.3982 1.44163 11.8591 1.71116 12.3747 2.20726C13.0466 2.84398 13.3864 3.5471 13.4763 4.45726C13.5817 5.53538 13.2497 6.51976 12.5192 7.30101C12.0661 7.78538 11.3982 8.19554 10.8317 8.34007C9.9919 8.55101 8.9919 8.46117 8.27315 8.1057C7.29268 7.62132 6.56612 6.71507 6.3005 5.64476C6.19893 5.2346 6.21065 4.30882 6.32393 3.88695C6.62471 2.75413 7.60909 1.70335 8.70284 1.34788C9.29659 1.15648 10.1833 1.12913 10.7849 1.28538Z" fill="currentColor"/>
<path d="M5.5741 9.69141C4.97644 9.75391 4.35925 9.98047 3.87097 10.3086C2.65222 11.1367 1.86316 12.9883 1.67957 15.4492C1.578 16.832 1.66004 17.5156 2.0155 18.2305C2.21082 18.6289 2.58191 19.0664 2.96082 19.3477C3.24988 19.5586 3.73425 19.7773 4.16004 19.8867L4.5116 19.9805H9.98035H15.4491L15.8007 19.8906C17.035 19.5664 17.8983 18.7344 18.2069 17.5586C18.3671 16.9531 18.3475 15.5078 18.16 14.3672C17.7499 11.8281 16.7108 10.3047 15.0663 9.82812C14.6913 9.71875 14.0194 9.63672 13.8202 9.67578C13.6288 9.71094 13.3632 9.85156 12.7616 10.2383C12.1132 10.6562 12.0116 10.7109 11.5272 10.8867C10.9569 11.0938 10.5311 11.1758 10.0038 11.1758C9.45691 11.1758 9.03504 11.0977 8.48035 10.9023C7.95691 10.7148 7.93347 10.7031 7.11316 10.1836C6.68347 9.91016 6.36316 9.73438 6.23816 9.69922C6.01941 9.64453 6.01941 9.64453 5.5741 9.69141ZM6.58972 11.2344C7.3241 11.707 7.63269 11.8594 8.27722 12.0703C9.95691 12.6211 11.6718 12.3555 13.2889 11.2969C14.0194 10.8164 14.0038 10.8242 14.3124 10.8633C15.7303 11.043 16.6171 12.2344 16.9921 14.4727C17.1444 15.3945 17.1913 16.6797 17.0897 17.168C16.9257 17.9531 16.3944 18.5078 15.5819 18.7383C15.3475 18.8047 15.0389 18.8086 9.98035 18.8086C4.91004 18.8086 4.61707 18.8047 4.37488 18.7383C3.79285 18.5742 3.28894 18.1758 3.05457 17.6953C2.85144 17.2812 2.80066 16.9336 2.83191 16.0938C2.85925 15.2461 2.89832 14.8516 3.03504 14.1602C3.1366 13.6211 3.37488 12.8555 3.54285 12.5234C4.04675 11.5234 4.73035 10.9766 5.61707 10.8633C5.7616 10.8438 5.89441 10.8281 5.91004 10.8242C5.92566 10.8242 6.23035 11.0078 6.58972 11.2344Z" fill="currentColor"/>
</svg>
